<?xml version="1.0" encoding="UTF-8" standalone="no"?>
<!DOCTYPE svg PUBLIC "-//W3C//DTD SVG 1.1//EN"
 "http://www.w3.org/Graphics/SVG/1.1/DTD/svg11.dtd">
<!-- Generated by graphviz version 2.49.0 (20210828.1703)
 -->
<!-- Title: Research_methodology1 Pages: 1 -->
<svg width="296pt" height="338pt"
 viewBox="0.00 0.00 296.00 338.00" xmlns="http://www.w3.org/2000/svg" xmlns:xlink="http://www.w3.org/1999/xlink">
<g id="graph0" class="graph" transform="scale(1 1) rotate(0) translate(4 334)">
<title>Research_methodology1</title>
<polygon fill="white" stroke="transparent" points="-4,4 -4,-334 292,-334 292,4 -4,4"/>
<!-- A -->
<g id="node1" class="node">
<title>A</title>
<polygon fill="#b2dfee" stroke="#b2dfee" points="288,-330 0,-330 0,-294 288,-294 288,-330"/>
<text text-anchor="middle" x="144" y="-308.3" font-family="Times New Roman,serif" font-size="14.00">Data Collection : NCBI Virus &amp; VIPR</text>
</g>
<!-- B -->
<g id="node2" class="node">
<title>B</title>
<polygon fill="#b2dfee" stroke="#b2dfee" points="288,-258 0,-258 0,-220 288,-220 288,-258"/>
<text text-anchor="middle" x="144" y="-242.8" font-family="Times New Roman,serif" font-size="14.00">Data Processing : Cleansing, Deduplication and</text>
<text text-anchor="middle" x="144" y="-227.8" font-family="Times New Roman,serif" font-size="14.00">Sequence Alignment</text>
</g>
<!-- A&#45;&gt;B -->
<g id="edge1" class="edge">
<title>A&#45;&gt;B</title>
<path fill="none" stroke="black" d="M144,-293.81C144,-286.11 144,-276.82 144,-268.15"/>
<polygon fill="black" stroke="black" points="147.5,-268.02 144,-258.02 140.5,-268.02 147.5,-268.02"/>
</g>
<!-- C -->
<g id="node3" class="node">
<title>C</title>
<polygon fill="#b2dfee" stroke="#b2dfee" points="288,-184 0,-184 0,-146 288,-146 288,-184"/>
<text text-anchor="middle" x="144" y="-168.8" font-family="Times New Roman,serif" font-size="14.00">Nonamer Position Based Entropy </text>
<text text-anchor="middle" x="144" y="-153.8" font-family="Times New Roman,serif" font-size="14.00">Analysis : DiMA</text>
</g>
<!-- B&#45;&gt;C -->
<g id="edge2" class="edge">
<title>B&#45;&gt;C</title>
<path fill="none" stroke="black" d="M144,-219.83C144,-212.13 144,-202.97 144,-194.42"/>
<polygon fill="black" stroke="black" points="147.5,-194.41 144,-184.41 140.5,-194.41 147.5,-194.41"/>
</g>
<!-- D -->
<g id="node4" class="node">
<title>D</title>
<polygon fill="#b2dfee" stroke="#b2dfee" points="288,-110 0,-110 0,-74 288,-74 288,-110"/>
<text text-anchor="middle" x="144" y="-88.3" font-family="Times New Roman,serif" font-size="14.00">Diversity Analysis of HRSV</text>
</g>
<!-- C&#45;&gt;D -->
<g id="edge3" class="edge">
<title>C&#45;&gt;D</title>
<path fill="none" stroke="black" d="M144,-145.72C144,-137.97 144,-128.79 144,-120.27"/>
<polygon fill="black" stroke="black" points="147.5,-120 144,-110 140.5,-120 147.5,-120"/>
</g>
<!-- E -->
<g id="node5" class="node">
<title>E</title>
<polygon fill="#b2dfee" stroke="#b2dfee" points="288,-38 0,-38 0,0 288,0 288,-38"/>
<text text-anchor="middle" x="144" y="-22.8" font-family="Times New Roman,serif" font-size="14.00">Identification of Highly Conserved</text>
<text text-anchor="middle" x="144" y="-7.8" font-family="Times New Roman,serif" font-size="14.00"> Nonamer Sequences</text>
</g>
<!-- D&#45;&gt;E -->
<g id="edge4" class="edge">
<title>D&#45;&gt;E</title>
<path fill="none" stroke="black" d="M144,-73.81C144,-66.11 144,-56.82 144,-48.15"/>
<polygon fill="black" stroke="black" points="147.5,-48.02 144,-38.02 140.5,-48.02 147.5,-48.02"/>
</g>
</g>
</svg>
